<?xml version="1.0" encoding="utf-8"?>
<!-- Generator: Adobe Illustrator 23.0.4, SVG Export Plug-In . SVG Version: 6.00 Build 0)  -->
<svg version="1.1" id="books" xmlns="http://www.w3.org/2000/svg" xmlns:xlink="http://www.w3.org/1999/xlink" x="0px" y="0px"
	 viewBox="0 0 36 32" style="enable-background:new 0 0 36 32;" xml:space="preserve">
<style type="text/css">
	.st0{fill:#437500;}
</style>
<path class="st0" d="M7,4H1C0.4,4,0,4.4,0,5v22c0,0.5,0.4,1,1,1h6c0.6,0,1-0.5,1-1V5C8,4.4,7.6,4,7,4z M6,10H2V8h4V10z"/>
<path class="st0" d="M17,4h-6c-0.6,0-1,0.4-1,1v22c0,0.5,0.4,1,1,1h6c0.5,0,1-0.5,1-1V5C18,4.4,17.5,4,17,4z M16,10h-4V8h4V10z"/>
<path class="st0" d="M23.9,5.5l-5.4,2.7c-0.5,0.2-0.7,0.9-0.4,1.3l9,17.9c0.2,0.5,0.9,0.7,1.3,0.4l5.4-2.7c0.5-0.2,0.7-0.9,0.4-1.3
	L25.3,6C25,5.5,24.4,5.3,23.9,5.5z"/>
</svg>
