<svg id="Layer_1" data-name="Layer 1" xmlns="http://www.w3.org/2000/svg" viewBox="0 0 50 50"><title>Artboard 1 copy</title><path id="Path_7276" data-name="Path 7276" d="M49.48,7.77V45.36H.71V7.77h6.5V4.88H17a15,15,0,0,1,4.31.61A13.25,13.25,0,0,1,25.1,7.32a13.07,13.07,0,0,1,3.82-1.83,15,15,0,0,1,4.31-.61H43V7.77ZM4,42.46H24.43a14.14,14.14,0,0,0-1.65-1.23,11.36,11.36,0,0,0-1.73-.9,10,10,0,0,0-1.91-.57A12.08,12.08,0,0,0,17,39.57H7.22V10.66H4v31.8Zm6.5-5.78H17a15.1,15.1,0,0,1,3.35.38,14,14,0,0,1,3.15,1.11V9.85a10.25,10.25,0,0,0-3-1.54A11.32,11.32,0,0,0,17,7.77h-6.5Zm35.77-26H43V39.57H33.22a12.08,12.08,0,0,0-2.17.19,9.31,9.31,0,0,0-1.91.57,11.36,11.36,0,0,0-1.73.9,14.14,14.14,0,0,0-1.65,1.23H46.23V10.66Zm-13-2.89a11.62,11.62,0,0,0-3.46.53,10.25,10.25,0,0,0-3,1.54V38.17a14.07,14.07,0,0,1,3.15-1.12,15.09,15.09,0,0,1,3.35-.37h6.5V7.77Z"/></svg>